<svg width="204" height="37" viewBox="0 0 204 37" fill="none" xmlns="http://www.w3.org/2000/svg">
<path d="M42.6566 14.2C41.6566 14.2 40.7633 14.0133 39.9766 13.64C39.2033 13.2667 38.59 12.6933 38.1366 11.92C37.6833 11.1333 37.4566 10.12 37.4566 8.88V1.92L35.8566 1.12V0.799999H40.8566V1.12L39.2566 1.92V8.58C39.2566 9.68667 39.43 10.5667 39.7766 11.22C40.1233 11.8733 40.59 12.34 41.1766 12.62C41.7766 12.9 42.4433 13.04 43.1766 13.04C43.7633 13.04 44.3033 12.9133 44.7966 12.66C45.3033 12.4067 45.7033 12.0067 45.9966 11.46C46.3033 10.9133 46.4566 10.1867 46.4566 9.28V1.88L44.4566 1.12V0.799999H49.4366V1.12L47.8566 1.9V8.88C47.8566 10.12 47.63 11.1333 47.1766 11.92C46.7233 12.6933 46.1033 13.2667 45.3166 13.64C44.5433 14.0133 43.6566 14.2 42.6566 14.2ZM53.9285 14V13.68L55.5285 12.88V1.96L53.9485 1.12V0.799999H56.8885L64.5285 10.4V1.88L62.5285 1.12V0.799999H67.5085V1.12L65.9285 1.9V14.1H65.1885L56.9285 3.68V12.9L58.9285 13.68V14H53.9285ZM71.9098 14V13.68L73.5098 12.88V1.92L71.9098 1.12V0.799999H76.9098V1.12L75.3098 1.92V12.88L76.9098 13.68V14H71.9098ZM87.4227 14.1L82.3827 1.82L81.0027 1.12V0.799999H86.0027V1.12L84.2827 1.86V1.96L88.0227 11.12H88.1227L91.8427 1.88V1.8L90.2027 1.12V0.799999H94.4027V1.12L93.2627 1.72L88.1227 14.1H87.4227ZM98.4074 14V13.68L100.007 12.88V1.92L98.4074 1.12V0.799999H108.187V4.24H107.867L106.627 1.9H101.807V6.64H105.207L106.207 4.98H106.527V9.36H106.207L105.207 7.74H101.807V12.9H107.187L108.427 10.36H108.747V14H98.4074ZM113.454 14V13.68L115.054 12.88V1.92L113.454 1.12V0.799999H118.614C120.014 0.799999 121.114 1.09333 121.914 1.68C122.728 2.25333 123.134 3.04667 123.134 4.06C123.134 4.80667 122.881 5.48 122.374 6.08C121.868 6.66667 121.194 7.11333 120.354 7.42L124.154 12.96L125.474 13.68V14H122.594L118.714 7.94H116.854V12.86L118.354 13.68V14H113.454ZM118.154 1.9H116.854V6.84H118.274C119.114 6.84 119.808 6.60667 120.354 6.14C120.914 5.66 121.194 5.05333 121.194 4.32C121.194 3.57333 120.921 2.98667 120.374 2.56C119.828 2.12 119.088 1.9 118.154 1.9ZM132.657 14.2C131.83 14.2 131.13 14.1267 130.557 13.98C129.984 13.82 129.39 13.5867 128.777 13.28L128.577 10H128.897L129.877 12.12C130.357 12.52 130.824 12.8133 131.277 13C131.73 13.1733 132.19 13.26 132.657 13.26C133.444 13.26 134.057 13.0533 134.497 12.64C134.95 12.2267 135.177 11.6667 135.177 10.96C135.177 10.3733 135.044 9.91333 134.777 9.58C134.524 9.24667 134.15 8.95333 133.657 8.7C133.177 8.43333 132.604 8.13333 131.937 7.8C131.31 7.48 130.777 7.16667 130.337 6.86C129.897 6.55333 129.564 6.2 129.337 5.8C129.11 5.38667 128.997 4.87333 128.997 4.26C128.997 3.80667 129.104 3.36667 129.317 2.94C129.544 2.5 129.844 2.10667 130.217 1.76C130.604 1.4 131.03 1.12 131.497 0.919999C131.977 0.706666 132.47 0.6 132.977 0.6C133.59 0.6 134.157 0.673333 134.677 0.819999C135.197 0.966666 135.73 1.17333 136.277 1.44L136.477 4.64H136.157L135.237 2.54C134.77 2.19333 134.364 1.94667 134.017 1.8C133.67 1.64 133.27 1.56 132.817 1.56C132.23 1.56 131.744 1.76 131.357 2.16C130.984 2.56 130.797 3.05333 130.797 3.64C130.797 4.32 131.004 4.85333 131.417 5.24C131.83 5.61333 132.477 6.01333 133.357 6.44C134.17 6.84 134.837 7.21333 135.357 7.56C135.877 7.89333 136.264 8.28 136.517 8.72C136.77 9.16 136.897 9.72 136.897 10.4C136.897 11.0267 136.764 11.58 136.497 12.06C136.23 12.5267 135.884 12.92 135.457 13.24C135.044 13.56 134.584 13.8 134.077 13.96C133.584 14.12 133.11 14.2 132.657 14.2ZM140.467 14V13.68L141.747 13.02L146.867 0.7H147.767L152.807 12.96L154.147 13.68V14H149.187V13.68L150.947 13L149.447 9.3H144.587L143.107 13L144.787 13.68V14H140.467ZM145.047 8.2H149.007L147.027 3.28L145.047 8.2ZM158.107 14V13.68L159.707 12.88V1.92L158.107 1.12V0.799999H163.307V1.12L161.507 1.92V12.9H166.367L167.727 9.56H168.047V14H158.107ZM0.319531 36V35.68L1.91953 34.88V23.92L0.319531 23.12V22.8H5.51953C7.09286 22.8 8.35286 23.0867 9.29953 23.66C10.2595 24.2333 10.7395 25.14 10.7395 26.38C10.7395 27.1133 10.4862 27.7667 9.97953 28.34C9.4862 28.9 8.8062 29.3467 7.93953 29.68C7.0862 30.0133 6.11953 30.18 5.03953 30.18H3.71953V34.88L5.51953 35.68V36H0.319531ZM3.71953 23.9V29.08H5.41953C6.47286 29.08 7.29953 28.8467 7.89953 28.38C8.49953 27.9 8.79953 27.2867 8.79953 26.54C8.79953 25.6067 8.49287 24.9333 7.87953 24.52C7.27953 24.1067 6.41287 23.9 5.27953 23.9H3.71953ZM12.8319 36V35.68L14.1119 35.02L19.2319 22.7H20.1319L25.1719 34.96L26.5119 35.68V36H21.5519V35.68L23.3119 35L21.8119 31.3H16.9519L15.4719 35L17.1519 35.68V36H12.8319ZM17.4119 30.2H21.3719L19.3919 25.28L17.4119 30.2ZM32.4064 36V35.68L34.4064 34.88V23.9H31.1464L29.7864 26.84H29.4664V22.8H41.1464V26.84H40.8264L39.4664 23.9H36.2064V34.88L38.2064 35.68V36H32.4064ZM45.443 36V35.68L47.043 34.88V23.92L45.443 23.12V22.8H50.443V23.12L48.843 23.92V34.88L50.443 35.68V36H45.443ZM55.1359 36V35.68L56.7359 34.88V23.92L55.1359 23.12V22.8H64.9159V26.24H64.5959L63.3559 23.9H58.5359V28.64H61.9359L62.9359 26.98H63.2559V31.36H62.9359L61.9359 29.74H58.5359V34.9H63.9159L65.1559 32.36H65.4759V36H55.1359ZM70.0828 36V35.68L71.6828 34.88V23.96L70.1028 23.12V22.8H73.0428L80.6828 32.4V23.88L78.6828 23.12V22.8H83.6628V23.12L82.0828 23.9V36.1H81.3428L73.0828 25.68V34.9L75.0828 35.68V36H70.0828ZM90.6994 36V35.68L92.6994 34.88V23.9H89.4394L88.0794 26.84H87.7594V22.8H99.4394V26.84H99.1194L97.7594 23.9H94.4994V34.88L96.4994 35.68V36H90.6994ZM110.636 36V35.68L112.236 34.88V23.92L110.636 23.12V22.8H115.796C117.196 22.8 118.296 23.0933 119.096 23.68C119.909 24.2533 120.316 25.0467 120.316 26.06C120.316 26.8067 120.063 27.48 119.556 28.08C119.049 28.6667 118.376 29.1133 117.536 29.42L121.336 34.96L122.656 35.68V36H119.776L115.896 29.94H114.036V34.86L115.536 35.68V36H110.636ZM115.336 23.9H114.036V28.84H115.456C116.296 28.84 116.989 28.6067 117.536 28.14C118.096 27.66 118.376 27.0533 118.376 26.32C118.376 25.5733 118.103 24.9867 117.556 24.56C117.009 24.12 116.269 23.9 115.336 23.9ZM125.859 36V35.68L127.459 34.88V23.92L125.859 23.12V22.8H135.639V26.24H135.319L134.079 23.9H129.259V28.64H132.659L133.659 26.98H133.979V31.36H133.659L132.659 29.74H129.259V34.9H134.639L135.879 32.36H136.199V36H125.859ZM147.605 36.2C146.245 36.2 145.072 35.92 144.085 35.36C143.099 34.8 142.339 34.04 141.805 33.08C141.272 32.1067 141.005 31 141.005 29.76C141.005 28.8133 141.185 27.9133 141.545 27.06C141.919 26.1933 142.419 25.4267 143.045 24.76C143.685 24.0933 144.419 23.5667 145.245 23.18C146.085 22.7933 146.972 22.6 147.905 22.6C148.572 22.6 149.139 22.6467 149.605 22.74C150.072 22.82 150.485 22.9333 150.845 23.08C151.219 23.2133 151.592 23.3733 151.965 23.56L152.065 27.06H151.705L150.485 24.62C149.979 24.26 149.532 24 149.145 23.84C148.772 23.68 148.345 23.6 147.865 23.6C146.905 23.6 146.045 23.84 145.285 24.32C144.539 24.8 143.945 25.46 143.505 26.3C143.079 27.1267 142.865 28.08 142.865 29.16C142.865 30.4267 143.072 31.5133 143.485 32.42C143.912 33.3133 144.479 34 145.185 34.48C145.905 34.9467 146.699 35.18 147.565 35.18C148.299 35.18 148.912 35.08 149.405 34.88C149.912 34.6667 150.359 34.4333 150.745 34.18L151.945 32.04H152.285L152.065 35.22C151.679 35.42 151.279 35.5933 150.865 35.74C150.465 35.8867 150.005 36 149.485 36.08C148.965 36.16 148.339 36.2 147.605 36.2ZM164.177 36.2C163.217 36.2 162.331 36.0333 161.517 35.7C160.717 35.3533 160.017 34.88 159.417 34.28C158.817 33.6667 158.351 32.9467 158.017 32.12C157.684 31.2933 157.517 30.3867 157.517 29.4C157.517 28.4133 157.684 27.5067 158.017 26.68C158.351 25.8533 158.817 25.14 159.417 24.54C160.017 23.9267 160.717 23.4533 161.517 23.12C162.331 22.7733 163.217 22.6 164.177 22.6C165.137 22.6 166.024 22.7733 166.837 23.12C167.651 23.4533 168.357 23.9267 168.957 24.54C169.557 25.14 170.024 25.8533 170.357 26.68C170.691 27.5067 170.857 28.4133 170.857 29.4C170.857 30.3867 170.691 31.2933 170.357 32.12C170.024 32.9467 169.557 33.6667 168.957 34.28C168.357 34.88 167.651 35.3533 166.837 35.7C166.024 36.0333 165.137 36.2 164.177 36.2ZM164.597 35.2C165.451 35.2 166.197 34.9867 166.837 34.56C167.491 34.1333 167.997 33.5333 168.357 32.76C168.731 31.9867 168.917 31.0733 168.917 30.02C168.917 28.7267 168.691 27.6 168.237 26.64C167.784 25.6667 167.171 24.9133 166.397 24.38C165.637 23.8467 164.784 23.58 163.837 23.58C162.984 23.58 162.224 23.7933 161.557 24.22C160.904 24.6333 160.391 25.2267 160.017 26C159.644 26.7733 159.457 27.6867 159.457 28.74C159.457 30.0333 159.684 31.1667 160.137 32.14C160.604 33.1133 161.224 33.8667 161.997 34.4C162.771 34.9333 163.637 35.2 164.597 35.2ZM175.55 36V35.68L177.15 34.88V23.92L175.55 23.12V22.8H180.71C182.11 22.8 183.21 23.0933 184.01 23.68C184.823 24.2533 185.23 25.0467 185.23 26.06C185.23 26.8067 184.977 27.48 184.47 28.08C183.963 28.6667 183.29 29.1133 182.45 29.42L186.25 34.96L187.57 35.68V36H184.69L180.81 29.94H178.95V34.86L180.45 35.68V36H175.55ZM180.25 23.9H178.95V28.84H180.37C181.21 28.84 181.903 28.6067 182.45 28.14C183.01 27.66 183.29 27.0533 183.29 26.32C183.29 25.5733 183.017 24.9867 182.47 24.56C181.923 24.12 181.183 23.9 180.25 23.9ZM190.773 36V35.68L192.373 34.88V23.92L190.773 23.12V22.8H196.633C198.099 22.8 199.353 23.06 200.393 23.58C201.433 24.1 202.219 24.8133 202.753 25.72C203.299 26.6267 203.573 27.6533 203.573 28.8C203.573 29.84 203.393 30.8 203.033 31.68C202.686 32.56 202.193 33.32 201.553 33.96C200.913 34.6 200.159 35.1 199.293 35.46C198.439 35.82 197.506 36 196.493 36H190.773ZM196.173 23.9H194.173V34.9H196.473C197.539 34.9 198.459 34.68 199.233 34.24C200.019 33.7867 200.619 33.1533 201.033 32.34C201.459 31.5133 201.673 30.54 201.673 29.42C201.673 28.3133 201.459 27.3467 201.033 26.52C200.606 25.68 199.979 25.0333 199.153 24.58C198.339 24.1267 197.346 23.9 196.173 23.9Z" fill="black"/>
</svg>
